# xmcd CD database file
#
# Track frame offsets:
#	150
#	62747
#	91880
#	110138
#	133335
#	151663
#
# Disc length: 2221 seconds
#
# Revision: 0
# Processed by: cddbd v1.5.1PL2 Copyright (c) Steve Scherf et al.
# Submitted via: CDex 1.51
#
DISCID=4c08ab06
DTITLE=月刊少年ガンガン2月号増刊ガンガンパワード冬季号 - 月刊少年ガンガン増刊号少年ガンガンパワード2006年冬季号特別付録ドラマCD
DYEAR=2005
DGENRE=Drama
TTITLE0=これが私のご主人様
TTITLE1=君と僕。
TTITLE2=みかにハラスメント
TTITLE3=ひぐらしのなく頃に　鬼隠し編ダイジェスト
TTITLE4=ひぐらしのなく頃に　綿流し編ダイジェスト
TTITLE5=ひぐらしのなく頃に　アンソロジーダイジェスト
EXTD=YEAR: 2005
EXTT0=
EXTT1=
EXTT2=
EXTT3=
EXTT4=
EXTT5=
PLAYORDER=
